<svg width="45" height="30" viewBox="0 0 45 30" fill="none" xmlns="http://www.w3.org/2000/svg">
<path fill-rule="evenodd" clip-rule="evenodd" d="M20.7688 21.1086V15.8651H23.5524C24.693 15.8651 25.6558 15.4936 26.4406 14.7607L26.629 14.5749C28.0626 13.0576 27.9685 10.6939 26.4406 9.29014C25.6767 8.54697 24.6302 8.14442 23.5524 8.16506H19.084V21.1086H20.7688ZM20.7695 14.2756V9.75464H23.5954C24.2025 9.75464 24.7781 9.98172 25.2072 10.3946C26.1178 11.2616 26.1387 12.7067 25.2595 13.6047C24.8304 14.0485 24.2234 14.2962 23.5954 14.2756H20.7695ZM34.4885 12.9441C33.7664 12.2938 32.7827 11.9635 31.5375 11.9635C29.9364 11.9635 28.7329 12.5415 27.9376 13.6873L29.4236 14.6059C29.9678 13.8214 30.7108 13.4292 31.6526 13.4292C32.2491 13.4292 32.8246 13.646 33.2746 14.0382C33.7141 14.4098 33.9653 14.9465 33.9653 15.5142V15.8961C33.3164 15.5452 32.5002 15.3594 31.4956 15.3594C30.3236 15.3594 29.3817 15.6278 28.6806 16.1748C27.9795 16.7219 27.6237 17.4444 27.6237 18.363C27.6028 19.1991 27.969 19.9939 28.6178 20.5306C29.2771 21.1087 30.1143 21.3977 31.0979 21.3977C32.2595 21.3977 33.1804 20.8919 33.8815 19.8804H33.9548V21.1087H35.5663V15.6484C35.5663 14.5027 35.2105 13.5944 34.4885 12.9441ZM29.9149 19.4778C29.5695 19.23 29.3601 18.8275 29.3601 18.394C29.3601 17.9088 29.5904 17.5063 30.0405 17.1863C30.501 16.8663 31.0766 16.7012 31.7569 16.7012C32.6989 16.6909 33.4315 16.8973 33.9548 17.3102C33.9548 18.0121 33.6723 18.621 33.1175 19.1371C32.6152 19.6326 31.9348 19.9113 31.2231 19.9113C30.7522 19.9216 30.2916 19.7668 29.9149 19.4778ZM39.1867 25L44.8166 12.2526H42.9853L40.3796 18.6108H40.3482L37.6798 12.2526H35.8485L39.5425 20.541L37.4495 25H39.1867Z" fill="#3C4043"/>
<path d="M14.9537 14.7297C14.9537 14.2239 14.9119 13.7181 14.8281 13.2227H7.72266V16.0818H11.7934C11.626 17.0005 11.0818 17.8262 10.2865 18.3423V20.2002H12.7143C14.1375 18.91 14.9537 17.0005 14.9537 14.7297Z" fill="#4285F4"/>
<path d="M7.72192 21.9962C9.75206 21.9962 11.4683 21.3356 12.7135 20.2002L10.2858 18.3423C9.60555 18.7964 8.73699 19.0545 7.72192 19.0545C5.75457 19.0545 4.09069 17.7436 3.49421 15.9889H0.993164V17.9088C2.26985 20.417 4.87554 21.9962 7.72192 21.9962Z" fill="#34A853"/>
<path d="M3.49454 15.989C3.18055 15.0703 3.18055 14.0691 3.49454 13.1402V11.2306H0.993092C-0.0849368 13.326 -0.0849368 15.8032 0.993092 17.8985L3.49454 15.989Z" fill="#FBBC04"/>
<path d="M7.72192 10.0746C8.79978 10.0539 9.83577 10.4565 10.6102 11.1893L12.7659 9.06302C11.395 7.80375 9.59509 7.11219 7.72192 7.13283C4.87554 7.13283 2.26985 8.7224 0.993164 11.2306L3.49421 13.1505C4.09069 11.3854 5.75457 10.0746 7.72192 10.0746Z" fill="#EA4335"/>
</svg>
