<svg width="20" height="20" viewBox="0 0 20 20" fill="none" xmlns="http://www.w3.org/2000/svg">
<path d="M10.0002 12.5C10.8842 12.5 11.7321 12.1488 12.3572 11.5237C12.9823 10.8986 13.3335 10.0507 13.3335 9.16668V4.16668C13.3335 3.28262 12.9823 2.43478 12.3572 1.80965C11.7321 1.18453 10.8842 0.833344 10.0002 0.833344C9.11611 0.833344 8.26826 1.18453 7.64314 1.80965C7.01802 2.43478 6.66683 3.28262 6.66683 4.16668V9.16668C6.66683 10.0507 7.01802 10.8986 7.64314 11.5237C8.26826 12.1488 9.11611 12.5 10.0002 12.5ZM8.3335 4.16668C8.3335 3.72465 8.50909 3.30073 8.82165 2.98817C9.13421 2.6756 9.55814 2.50001 10.0002 2.50001C10.4422 2.50001 10.8661 2.6756 11.1787 2.98817C11.4912 3.30073 11.6668 3.72465 11.6668 4.16668V9.16668C11.6668 9.6087 11.4912 10.0326 11.1787 10.3452C10.8661 10.6577 10.4422 10.8333 10.0002 10.8333C9.55814 10.8333 9.13421 10.6577 8.82165 10.3452C8.50909 10.0326 8.3335 9.6087 8.3335 9.16668V4.16668ZM16.6668 9.16668C16.6668 8.94566 16.579 8.7337 16.4228 8.57742C16.2665 8.42114 16.0545 8.33334 15.8335 8.33334C15.6125 8.33334 15.4005 8.42114 15.2442 8.57742C15.088 8.7337 15.0002 8.94566 15.0002 9.16668C15.0002 10.4928 14.4734 11.7645 13.5357 12.7022C12.598 13.6399 11.3262 14.1667 10.0002 14.1667C8.67408 14.1667 7.40231 13.6399 6.46463 12.7022C5.52695 11.7645 5.00016 10.4928 5.00016 9.16668C5.00016 8.94566 4.91237 8.7337 4.75608 8.57742C4.5998 8.42114 4.38784 8.33334 4.16683 8.33334C3.94582 8.33334 3.73385 8.42114 3.57757 8.57742C3.42129 8.7337 3.3335 8.94566 3.3335 9.16668C3.33497 10.7894 3.92826 12.3559 5.00216 13.5725C6.07606 14.7891 7.55681 15.5722 9.16683 15.775V17.5H7.50016C7.27915 17.5 7.06719 17.5878 6.91091 17.7441C6.75463 17.9004 6.66683 18.1123 6.66683 18.3333C6.66683 18.5544 6.75463 18.7663 6.91091 18.9226C7.06719 19.0789 7.27915 19.1667 7.50016 19.1667H12.5002C12.7212 19.1667 12.9331 19.0789 13.0894 18.9226C13.2457 18.7663 13.3335 18.5544 13.3335 18.3333C13.3335 18.1123 13.2457 17.9004 13.0894 17.7441C12.9331 17.5878 12.7212 17.5 12.5002 17.5H10.8335V15.775C12.4435 15.5722 13.9243 14.7891 14.9982 13.5725C16.0721 12.3559 16.6654 10.7894 16.6668 9.16668Z" fill="#75839D"/>
</svg>
